<svg xmlns="http://www.w3.org/2000/svg" version="1.1" xmlns:xlink="http://www.w3.org/1999/xlink" xmlns:svgjs="http://svgjs.dev/svgjs" width="100%" height="100%" viewBox="0 0 1000 600"><rect width="1000" height="600" x="0" y="0" fill="#fffff7"/><g><circle r="166.66666666666666" cx="374.59874979654944" cy="396.8210764418626" fill="#89fcb3" transform="matrix(0.6011575363267881,0,0,0.6011575363267881,0,61.44801399486687)"/><path d="M381.080052142074 471.82110405495087L381.080052142074 471.82110405495087Q361.50736927601804 471.82110405495087 346.6847819593266 462.5498332236612Q331.86219464263513 453.27856239237155 323.5066048811024 436.3670776352969Q315.15101511956976 419.4842079116521 315.15101511956976 396.8211014351663L315.15101511956976 396.8211014351663Q315.15101511956976 374.1579949586805 323.5066048811024 357.3609703353254Q331.86219464263513 340.5639457119704 346.6847819593266 331.206829780391Q361.50736927601804 321.8210988153818 381.080052142074 321.8210988153818L381.080052142074 321.8210988153818Q398.19184213315805 321.8210988153818 411.69813791207383 329.1465473734378Q425.1758186575597 336.4433808980639 434.0464790208307 349.8352165432601L434.0464790208307 349.8352165432601L422.9152310165971 356.4452892655684Q415.90454782627006 345.9149569633629 405.2025253234851 340.16333524395174Q394.4718877872702 334.3830984911106 381.080052142074 334.3830984911106L381.080052142074 334.3830984911106Q365.62793408992457 334.3830984911106 353.6954651496536 341.908852283176Q341.73438117595276 349.4346060752414 334.952618253065 363.4273574224656Q328.1422402967473 377.4487238031197 328.1422402967473 396.8211014351663L328.1422402967473 396.8211014351663Q328.1422402967473 416.19347906721293 334.952618253065 430.30069054815675Q341.73438117595276 444.40790202910057 353.6954651496536 451.933655821166Q365.62793408992457 459.4594096132313 381.080052142074 459.4594096132313L381.080052142074 459.4594096132313Q394.4718877872702 459.4594096132313 405.2025253234851 453.6791728603902Q415.90454782627006 447.89893610754916 422.9152310165971 437.3972188387735L422.9152310165971 437.3972188387735L434.0464790208307 444.20759679509126Q425.1758186575597 457.1702069388388 411.69813791207383 464.49565549689487Q398.19184213315805 471.82110405495087 381.080052142074 471.82110405495087Z " fill="#fffff7" transform="matrix(0.6011575363267881,0,0,0.6011575363267881,0,61.44801399486687)"/><path d="M670.050710901895 471.82109752286544L670.050710901895 471.82109752286544Q656.9466746312592 471.82109752286544 646.7135877387888 465.28329200823157Q636.4805008463184 458.7170612522297 630.5396254004119 447.1764132568325Q624.5987499545054 435.60734002006734 624.5987499545054 420.4566863709375L624.5987499545054 420.4566863709375Q624.5987499545054 405.3060327218077 630.5396254004119 393.73695948504246Q636.4805008463184 382.19631148964527 646.7135877387888 375.6300807336434Q656.9466746312592 369.09227521900954 670.050710901895 369.09227521900954L670.050710901895 369.09227521900954Q683.3537238621066 369.09227521900954 693.5868107545768 375.6300807336434Q703.8198976470474 382.19631148964527 709.7607730929537 393.73695948504246Q715.6732232974923 405.3060327218077 715.6732232974923 420.4566863709375L715.6732232974923 420.4566863709375Q715.6732232974923 435.60734002006734 709.7607730929537 447.1764132568325Q703.8198976470474 458.7170612522297 693.5868107545768 465.28329200823157Q683.3537238621066 471.82109752286544 670.050710901895 471.82109752286544ZM670.050710901895 460.1667485619963L670.050710901895 460.1667485619963Q679.6584424842699 460.1667485619963 687.1342809640469 455.24918180533695Q694.6101194438239 450.3316150486776 698.9023308903879 441.4345145005019Q703.1945423369519 432.5374139523262 703.1945423369519 420.4566863709375L703.1945423369519 420.4566863709375Q703.1945423369519 408.3759587895488 698.9023308903879 399.47885824137313Q694.6101194438239 390.58175769319746 687.1342809640469 385.66419093653803Q679.6584424842699 380.7466241798786 670.050710901895 380.7466241798786L670.050710901895 380.7466241798786Q655.7243892524364 380.7466241798786 646.4009100837411 391.4913654169726Q637.1058561564137 402.23610665406653 637.1058561564137 420.4566863709375L637.1058561564137 420.4566863709375Q637.1058561564137 438.4782893982326 646.4009100837411 449.3083063594305Q655.7243892524364 460.1667485619963 670.050710901895 460.1667485619963ZM756.2076174882224 469.5755034547956L743.9279132172578 469.5755034547956L743.9279132172578 371.53684597665523L756.2076174882224 371.53684597665523L756.2076174882224 469.5755034547956ZM750.0677653527401 350.24634019204314L750.0677653527401 350.24634019204314Q746.1735072853277 350.24634019204314 743.3025579071624 347.48909177934974Q740.460033770365 344.73184336665634 740.460033770365 340.837585299244L740.460033770365 340.837585299244Q740.460033770365 336.7443505422558 743.3025579071624 334.1008030950343Q746.1735072853277 331.4288304064447 750.0677653527401 331.4288304064447L750.0677653527401 331.4288304064447Q753.9620234201525 331.4288304064447 756.6055708673739 334.1008030950343Q759.2775435559635 336.7443505422558 759.2775435559635 340.837585299244L759.2775435559635 340.837585299244Q759.2775435559635 344.73184336665634 756.6055708673739 347.48909177934974Q753.9620234201525 350.24634019204314 750.0677653527401 350.24634019204314ZM802.2565085043393 469.5755034547956L789.7778275437989 469.5755034547956L789.7778275437989 371.53684597665523L801.4321765046681 371.53684597665523L801.8585551251876 385.4652142469622Q806.5487199509032 378.50103011180875 814.4225118098319 373.78244004472515Q822.3247289101286 369.09227521900954 832.3304138716551 369.09227521900954L832.3304138716551 369.09227521900954Q848.1064228308804 369.09227521900954 857.7141544132554 379.12638542190416Q867.3503112369984 389.1320703834308 867.3503112369984 407.7790287208213L867.3503112369984 407.7790287208213L867.3503112369984 469.5755034547956L855.0706069660339 469.5755034547956L855.0706069660339 409.59824416837165Q855.0706069660339 395.271922518913 848.1916985549843 388.1087616941837Q841.3412153853027 380.94560086945444 830.5111984241048 380.94560086945444L830.5111984241048 380.94560086945444Q822.3247289101286 380.94560086945444 815.8721991195986 384.5271812818191Q809.4196693290686 388.1087616941837 805.8380889167039 394.1633381055621Q802.2565085043393 400.18948927557244 802.2565085043393 407.55162678987756L802.2565085043393 407.55162678987756L802.2565085043393 469.5755034547956ZM950.4372917555847 469.5755034547956L937.5322321745248 469.5755034547956L937.5322321745248 338.19403785202246L890.4600324691608 338.19403785202246L890.4600324691608 326.3122869602096L997.5094914609487 326.3122869602096L997.5094914609487 338.19403785202246L950.4372917555847 338.19403785202246L950.4372917555847 469.5755034547956ZM1032.8989169640756 469.5755034547956L1020.2212593139595 469.5755034547956L1020.2212593139595 371.53684597665523L1032.1030102057723 371.53684597665523L1032.6999402744998 388.5351403147033Q1036.7931750314879 379.9222921802074 1045.6902755796636 374.52149632029244Q1054.6158013692072 369.09227521900954 1065.445818330405 369.09227521900954L1065.445818330405 369.09227521900954Q1068.3167677085705 369.09227521900954 1071.2729928108397 369.40495287405724Q1074.257643154477 369.68920528773697 1076.304260532971 370.3145605978324L1076.304260532971 370.3145605978324L1076.304260532971 382.3952881792211Q1074.4566198440527 381.9689095587015 1071.0740161212639 381.57095617954985Q1067.691412398475 381.17300280039825 1064.2235329515822 381.17300280039825L1064.2235329515822 381.17300280039825Q1055.6391100584544 381.17300280039825 1048.475949233725 385.1525365919145Q1041.3127884089959 389.1320703834308 1037.1058526865356 395.78357686353655Q1032.8989169640756 402.43508334364236 1032.8989169640756 410.8489547885625L1032.8989169640756 410.8489547885625L1032.8989169640756 469.5755034547956ZM1123.376460238335 471.42314414371384L1123.376460238335 471.42314414371384Q1109.0501385888765 471.6221208332896 1100.1530380407007 464.856913387712Q1091.227512251157 458.1201311835023 1091.227512251157 445.2150716024423L1091.227512251157 445.2150716024423Q1091.227512251157 435.4083633304915 1097.879018731263 428.0178005748184Q1104.5305252113685 420.6556630605133 1114.877313069311 416.4771525794212Q1125.2241009272534 412.27021685696116 1136.2530945780268 412.27021685696116L1136.2530945780268 412.27021685696116Q1151.403748227157 412.27021685696116 1160.2155730512286 419.43337768169044L1160.2155730512286 419.43337768169044L1160.2155730512286 402.6624852745861Q1160.2155730512286 388.93309369385497 1154.473674294898 384.7545832127629Q1148.7602007799353 380.54764749030284 1136.0541178884512 380.54764749030284L1136.0541178884512 380.54764749030284Q1127.8676483744748 380.54764749030284 1117.8335381715801 383.50387259257207Q1107.8278532100535 386.4885229362093 1100.8636690749001 390.97971107234906L1100.8636690749001 390.97971107234906L1094.9227936289935 381.17300280039825Q1102.9102864533943 376.056459354163 1114.2519577592157 372.5601546659023Q1125.6220543064048 369.09227521900954 1136.0541178884512 369.09227521900954L1136.0541178884512 369.09227521900954Q1154.6726509844739 369.09227521900954 1163.4844758085455 376.2554360437388Q1172.2963006326172 383.4185968684681 1172.2963006326172 402.6624852745861L1172.2963006326172 402.6624852745861L1172.2963006326172 456.8978458046794Q1172.2963006326172 460.7636786307238 1174.4281937352152 461.2753329753473Q1176.5885120791813 461.7869873199709 1183.9506495934866 460.36572525157214L1183.9506495934866 460.36572525157214L1183.9506495934866 469.1775500756439Q1181.9040322149922 469.9734568339472 1178.4361527680994 470.7125131095145Q1174.9398480798388 471.42314414371384 1171.8699220120975 471.42314414371384L1171.8699220120975 471.42314414371384Q1164.9057378769442 471.42314414371384 1162.85912049845 468.5521947655485Q1160.812503119956 465.6812453873832 1160.4145497408044 457.6937525629827L1160.4145497408044 457.6937525629827Q1154.0757209157464 464.65793669813615 1143.6436573337 467.9268394554531Q1133.183168510286 471.224167454138 1123.376460238335 471.42314414371384ZM1123.9733903070623 460.1667485619963L1123.9733903070623 460.1667485619963Q1133.8085238203812 459.96777187242054 1142.3076709894053 457.0968224942552Q1150.8068181584295 454.22587311608993 1155.8096606391928 448.796652014807Q1160.812503119956 443.36743091352406 1160.4145497408044 435.60734002006734L1160.4145497408044 435.60734002006734Q1159.789194430709 429.26851119500924 1153.4503656056509 426.08488416179625Q1147.1115367805928 422.9012571285832 1137.0774265776981 423.12865905952697L1137.0774265776981 423.12865905952697Q1128.6919803741462 423.12865905952697 1120.9034642393212 425.9711831963243Q1113.1433733458646 428.84213257448965 1108.339507554677 433.87340029662096Q1103.5072165221216 438.8762427773843 1103.5072165221216 445.41404829201815L1103.5072165221216 445.41404829201815Q1103.5072165221216 453.003587737267 1109.2491152784523 456.5851681496317Q1114.991014034783 460.1667485619963 1123.9733903070623 460.1667485619963ZM1242.4782215701437 471.82109752286544L1242.4782215701437 471.82109752286544Q1229.3741852995076 471.82109752286544 1219.1410984070376 465.3685677323355Q1208.908011514567 458.9444631831735 1202.9955613100287 447.2616889809364Q1197.0546858641221 435.60734002006734 1197.0546858641221 420.4566863709375L1197.0546858641221 420.4566863709375Q1197.0546858641221 405.3060327218077 1202.9955613100287 393.73695948504246Q1208.908011514567 382.19631148964527 1219.1410984070376 375.7437816991153Q1229.3741852995076 369.29125190858537 1242.4782215701437 369.29125190858537L1242.4782215701437 369.29125190858537Q1252.91028515219 369.29125190858537 1261.8358109417334 373.4981876310454Q1270.7329114899092 377.6766981121375 1277.0717403149672 385.86316762611386L1277.0717403149672 385.86316762611386L1267.2366068016486 393.225305140419Q1258.026828598425 380.94560086945444 1242.4782215701437 380.94560086945444L1242.4782215701437 380.94560086945444Q1228.151899920685 380.94560086945444 1218.8568459933576 391.6903421065484Q1209.5333668246626 402.43508334364236 1209.5333668246626 420.4566863709375L1209.5333668246626 420.4566863709375Q1209.5333668246626 438.4782893982326 1218.8568459933576 449.3083063594305Q1228.151899920685 460.1667485619963 1242.4782215701437 460.1667485619963L1242.4782215701437 460.1667485619963Q1258.026828598425 460.1667485619963 1267.2366068016486 447.8870442910318L1267.2366068016486 447.8870442910318L1277.0717403149672 455.24918180533695Q1263.9677040443314 471.82109752286544 1242.4782215701437 471.82109752286544ZM1314.3088065070126 469.5755034547956L1301.8301255464721 469.5755034547956L1301.8301255464721 321.82109882406974L1314.3088065070126 321.82109882406974L1314.3088065070126 411.64486154686574L1359.1354121443067 371.53684597665523L1376.3326831719303 371.53684597665523L1325.5652020887298 415.9654982347977L1378.3793005504247 469.5755034547956L1362.2053382120478 469.5755034547956L1314.3088065070126 420.2577096813617L1314.3088065070126 469.5755034547956ZM1412.1484872955768 469.5755034547956L1399.4708296454608 469.5755034547956L1399.4708296454608 371.53684597665523L1411.3241552959055 371.53684597665523L1411.949510606001 388.5351403147033Q1416.0427453629893 379.9222921802074 1424.939845911165 374.52149632029244Q1433.8369464593407 369.09227521900954 1444.6953886619065 369.09227521900954L1444.6953886619065 369.09227521900954Q1447.5663380400717 369.09227521900954 1450.5225631423411 369.40495287405724Q1453.4787882446105 369.68920528773697 1455.5254056231045 370.3145605978324L1455.5254056231045 370.3145605978324L1455.5254056231045 382.3952881792211Q1453.706190175554 381.9689095587015 1450.3235864527653 381.57095617954985Q1446.9409827299764 381.17300280039825 1443.4731032830834 381.17300280039825L1443.4731032830834 381.17300280039825Q1434.8602551485876 381.17300280039825 1427.6970943238587 385.1525365919145Q1420.5339334991293 389.1320703834308 1416.355423018037 395.78357686353655Q1412.1484872955768 402.43508334364236 1412.1484872955768 410.8489547885625L1412.1484872955768 410.8489547885625L1412.1484872955768 469.5755034547956Z " fill="#89fcb3" transform="matrix(0.6011575363267881,0,0,0.6011575363267881,0,61.44801399486687)"/></g></svg>