<svg xmlns="http://www.w3.org/2000/svg" version="1.1" xmlns:xlink="http://www.w3.org/1999/xlink" xmlns:svgjs="http://svgjs.dev/svgjs" width="1440" height="560" preserveAspectRatio="none" viewBox="0 0 1440 560"><g mask="url(&quot;#SvgjsMask1013&quot;)" fill="none"><rect width="1440" height="560" x="0" y="0" fill="rgba(34, 125, 92, 1)"></rect><path d="M 0,186 C 57.6,164.2 172.8,64.4 288,77 C 403.2,89.6 460.8,258.6 576,249 C 691.2,239.4 748.8,31.4 864,29 C 979.2,26.6 1036.8,240.8 1152,237 C 1267.2,233.2 1382.4,55.4 1440,10L1440 560L0 560z" fill="rgba(14, 78, 17, 1)"></path><path d="M 0,425 C 96,406 288,310.8 480,330 C 672,349.2 768,515 960,521 C 1152,527 1344,392.2 1440,360L1440 560L0 560z" fill="rgba(37, 135, 122, 1)"></path></g><defs><mask id="SvgjsMask1013"><rect width="1440" height="560" fill="#ffffff"></rect></mask></defs></svg>